<svg xmlns="http://www.w3.org/2000/svg" viewBox="0 0 1600 900">
  <defs>
    <linearGradient id="sky" x1="0" y1="0" x2="0" y2="1">
      <stop offset="0%" stop-color="#f6b36b"/>
      <stop offset="45%" stop-color="#f18a6a"/>
      <stop offset="100%" stop-color="#6c6fa8"/>
    </linearGradient>
    <linearGradient id="sea" x1="0" y1="0" x2="0" y2="1">
      <stop offset="0%" stop-color="#f2d1a0"/>
      <stop offset="100%" stop-color="#496281"/>
    </linearGradient>
  </defs>
  <rect width="1600" height="900" fill="url(#sky)"/>
  <rect y="470" width="1600" height="430" fill="url(#sea)"/>
  <circle cx="1180" cy="248" r="92" fill="#ffd7a5" opacity="0.84"/>
  <rect y="620" width="1600" height="280" fill="#8d6b57"/>
  <path d="M0 630 C210 586 462 590 703 646 S1178 721 1600 654 L1600 900 L0 900 Z" fill="#c29372"/>
  <g fill="#8c5a46" opacity="0.72">
    <ellipse cx="420" cy="720" rx="42" ry="18"/>
    <ellipse cx="470" cy="744" rx="38" ry="16"/>
    <ellipse cx="524" cy="772" rx="35" ry="14"/>
    <ellipse cx="576" cy="798" rx="31" ry="13"/>
    <ellipse cx="960" cy="700" rx="42" ry="18"/>
    <ellipse cx="1015" cy="726" rx="37" ry="15"/>
    <ellipse cx="1064" cy="750" rx="33" ry="13"/>
  </g>
  <g fill="#fff3dc" opacity="0.36">
    <path d="M0 540 C240 500 482 504 710 548 S1174 612 1600 560" stroke="#fff3dc" stroke-width="10" fill="none"/>
    <path d="M0 572 C272 530 492 540 720 582 S1176 644 1600 600" stroke="#ffe0bf" stroke-width="6" fill="none"/>
  </g>
</svg>
