<svg xmlns="http://www.w3.org/2000/svg" viewBox="0 0 1600 900">
  <defs>
    <linearGradient id="wall" x1="0" y1="0" x2="1" y2="1">
      <stop offset="0%" stop-color="#6e4f46"/>
      <stop offset="100%" stop-color="#2c2733"/>
    </linearGradient>
    <linearGradient id="window" x1="0" y1="0" x2="0" y2="1">
      <stop offset="0%" stop-color="#f9c58a"/>
      <stop offset="100%" stop-color="#7f7eb6"/>
    </linearGradient>
  </defs>
  <rect width="1600" height="900" fill="url(#wall)"/>
  <rect x="950" y="110" width="490" height="420" rx="22" fill="url(#window)"/>
  <rect x="1178" y="110" width="16" height="420" fill="#f5dfc2" opacity="0.55"/>
  <rect x="950" y="310" width="490" height="14" fill="#f5dfc2" opacity="0.55"/>
  <circle cx="1230" cy="216" r="58" fill="#ffd2a1" opacity="0.72"/>
  <rect x="0" y="640" width="1600" height="260" fill="#40353d"/>
  <ellipse cx="620" cy="676" rx="318" ry="44" fill="#5a4037"/>
  <rect x="418" y="474" width="26" height="194" fill="#261f25"/>
  <rect x="798" y="474" width="26" height="194" fill="#261f25"/>
  <rect x="454" y="474" width="344" height="28" rx="14" fill="#261f25"/>
  <ellipse cx="626" cy="454" rx="156" ry="38" fill="#f4ecdf"/>
  <ellipse cx="626" cy="454" rx="118" ry="24" fill="#c8b59b"/>
  <g fill="#fff4d5">
    <rect x="558" y="410" width="18" height="56" rx="9"/>
    <rect x="672" y="410" width="18" height="56" rx="9"/>
  </g>
  <g fill="#f7c27f" opacity="0.85">
    <circle cx="567" cy="408" r="16"/>
    <circle cx="681" cy="408" r="16"/>
  </g>
  <g fill="#1b161d" opacity="0.74">
    <path d="M280 564 C326 508 384 488 446 492 C424 548 358 592 280 564 Z"/>
    <path d="M850 548 C916 474 990 460 1058 486 C1014 560 930 586 850 548 Z"/>
  </g>
</svg>
