<svg xmlns="http://www.w3.org/2000/svg" viewBox="0 0 1600 900">
  <defs>
    <linearGradient id="room" x1="0" y1="0" x2="1" y2="1">
      <stop offset="0%" stop-color="#705247"/>
      <stop offset="100%" stop-color="#352932"/>
    </linearGradient>
    <linearGradient id="lamp" x1="0" y1="0" x2="0" y2="1">
      <stop offset="0%" stop-color="#ffe2ad"/>
      <stop offset="100%" stop-color="#f3a868"/>
    </linearGradient>
  </defs>
  <rect width="1600" height="900" fill="url(#room)"/>
  <rect x="0" y="648" width="1600" height="252" fill="#473740"/>
  <ellipse cx="774" cy="702" rx="316" ry="38" fill="#5c4336"/>
  <rect x="486" y="430" width="22" height="248" fill="#261f24"/>
  <rect x="1040" y="430" width="22" height="248" fill="#261f24"/>
  <rect x="522" y="430" width="518" height="26" rx="13" fill="#261f24"/>
  <ellipse cx="784" cy="406" rx="186" ry="42" fill="#e8ddd2"/>
  <circle cx="784" cy="180" r="92" fill="url(#lamp)" opacity="0.96"/>
  <rect x="760" y="0" width="48" height="176" fill="#231c22"/>
  <g fill="#f7eee4">
    <circle cx="704" cy="392" r="32"/>
    <circle cx="860" cy="392" r="32"/>
  </g>
  <g fill="#d5c1ab">
    <rect x="640" y="470" width="60" height="94" rx="10"/>
    <rect x="874" y="470" width="60" height="94" rx="10"/>
  </g>
  <g fill="#201a20" opacity="0.75">
    <path d="M272 616 C340 524 430 502 512 530 C468 610 394 644 272 616 Z"/>
    <path d="M1098 616 C1172 516 1274 500 1362 544 C1312 622 1222 652 1098 616 Z"/>
  </g>
</svg>
