<svg xmlns="http://www.w3.org/2000/svg" viewBox="0 0 1600 900">
  <defs>
    <linearGradient id="desk" x1="0" y1="0" x2="1" y2="1">
      <stop offset="0%" stop-color="#815d4e"/>
      <stop offset="100%" stop-color="#3b2d33"/>
    </linearGradient>
  </defs>
  <rect width="1600" height="900" fill="url(#desk)"/>
  <g transform="rotate(-8 400 280)">
    <rect x="182" y="112" width="420" height="312" rx="12" fill="#f6e9d8"/>
    <rect x="218" y="148" width="348" height="240" fill="#e8b282"/>
    <circle cx="464" cy="222" r="64" fill="#ffd7a5" opacity="0.74"/>
    <path d="M218 322 C312 252 416 242 566 330 L566 388 L218 388 Z" fill="#6a5575"/>
  </g>
  <g transform="rotate(7 990 420)">
    <rect x="804" y="186" width="476" height="344" rx="12" fill="#f6e9d8"/>
    <rect x="840" y="222" width="404" height="272" fill="#f2c69b"/>
    <path d="M840 404 C918 340 998 334 1076 380 C1148 422 1200 430 1244 414 L1244 494 L840 494 Z" fill="#7a5c6c"/>
    <g fill="#1d1820" opacity="0.75">
      <path d="M930 420 C970 372 1018 360 1068 386 C1042 438 994 458 930 420 Z"/>
      <path d="M1060 420 C1102 368 1154 360 1200 392 C1170 444 1118 460 1060 420 Z"/>
    </g>
  </g>
  <g fill="#e8d2b0">
    <circle cx="710" cy="718" r="52"/>
    <circle cx="778" cy="746" r="34"/>
    <circle cx="308" cy="678" r="18"/>
    <circle cx="1242" cy="130" r="14"/>
  </g>
</svg>
